<svg width="102.026733" height="140.000000" viewBox="0 0 102.027 140" fill="none" xmlns="http://www.w3.org/2000/svg" xmlns:xlink="http://www.w3.org/1999/xlink">
	<desc>
			Created with Pixso.
	</desc>
	<defs/>
	<path id="Vector" d="M64.01 12.43C59.98 10.78 55.57 9.87 50.94 9.87C31.89 9.87 16.44 25.31 16.44 44.37C16.44 52.03 18.94 59.11 23.16 64.84L23.16 78.98C13.04 70.84 6.57 58.36 6.57 44.37C6.57 19.86 26.43 0 50.94 0C59.46 0 67.42 2.4 74.18 6.57L74.18 42.49C74.18 55.97 65.13 67.09 51.05 67.09C48.21 67.09 45.5 66.58 42.99 65.65L42.99 54.17C45.21 55.92 48 56.97 51.05 56.97C58.21 56.97 64.01 51.17 64.01 44.01L64.01 12.43ZM38.01 76.33C42.04 77.98 46.45 78.89 51.08 78.89C70.13 78.89 85.57 63.45 85.57 44.4C85.57 36.73 83.07 29.65 78.84 23.93L78.84 9.79C88.97 17.92 95.45 30.4 95.45 44.4C95.45 68.9 75.58 88.77 51.08 88.77C42.56 88.77 34.59 86.36 27.83 82.2L27.83 46.28C27.83 32.78 36.89 21.67 50.97 21.67C53.8 21.67 56.52 22.18 59.03 23.12L59.03 34.6C56.81 32.83 54.02 31.78 50.97 31.78C43.81 31.78 38.01 37.59 38.01 44.74L38.01 76.33ZM16.11 121.92C16.11 122.07 16.06 122.17 15.97 122.25C15.89 122.34 15.77 122.38 15.63 122.38L12.82 122.38C12.7 122.38 12.59 122.33 12.51 122.24C12.42 122.16 12.35 122.05 12.32 121.92L11.1 116.89L5.01 116.89L3.78 121.92C3.75 122.05 3.69 122.16 3.6 122.24C3.51 122.33 3.41 122.38 3.28 122.38L0.48 122.38C0.33 122.38 0.22 122.34 0.13 122.25C0.04 122.17 0 122.07 0 121.92C0 121.91 0 121.89 0 121.88C0.01 121.86 0.02 121.83 0.02 121.79L4.37 105.17C4.52 104.56 4.76 104.08 5.05 103.72C5.35 103.37 5.68 103.1 6.03 102.91C6.37 102.73 6.72 102.61 7.09 102.55C7.45 102.5 7.77 102.48 8.05 102.48C8.33 102.48 8.66 102.5 9.02 102.55C9.38 102.61 9.74 102.73 10.08 102.91C10.42 103.1 10.74 103.37 11.05 103.72C11.35 104.08 11.58 104.56 11.73 105.17L16.08 121.79C16.08 121.83 16.09 121.86 16.09 121.88C16.1 121.89 16.11 121.91 16.11 121.92ZM54.03 121.92C54.03 122.07 53.99 122.17 53.9 122.25C53.81 122.34 53.7 122.38 53.55 122.38L50.74 122.38C50.62 122.38 50.52 122.33 50.43 122.24C50.33 122.16 50.28 122.05 50.24 121.92L49.02 116.89L42.92 116.89L41.71 121.92C41.67 122.05 41.61 122.16 41.52 122.24C41.43 122.33 41.32 122.38 41.21 122.38L38.39 122.38C38.26 122.38 38.14 122.34 38.05 122.25C37.96 122.17 37.92 122.07 37.92 121.92C37.92 121.91 37.92 121.89 37.93 121.88C37.94 121.86 37.94 121.83 37.94 121.79L42.29 105.17C42.45 104.56 42.68 104.08 42.98 103.72C43.28 103.37 43.6 103.1 43.94 102.91C44.29 102.73 44.65 102.61 45 102.55C45.37 102.5 45.69 102.48 45.98 102.48C46.26 102.48 46.58 102.5 46.94 102.55C47.31 102.61 47.65 102.73 48 102.91C48.35 103.1 48.67 103.37 48.97 103.72C49.26 104.08 49.5 104.56 49.66 105.17L54.01 121.79C54.01 121.83 54.01 121.86 54.02 121.88C54.03 121.89 54.03 121.91 54.03 121.92ZM87.1 121.56C87.1 121.75 87.04 121.89 86.94 121.96C86.83 122.05 86.7 122.11 86.51 122.17C86.41 122.2 86.23 122.24 85.97 122.28C85.71 122.33 85.41 122.37 85.03 122.42C84.66 122.46 84.25 122.5 83.79 122.53C83.33 122.57 82.84 122.59 82.33 122.59C81.54 122.59 80.69 122.47 79.82 122.24C78.93 122.01 78.13 121.6 77.4 120.99C76.66 120.37 76.07 119.55 75.58 118.5C75.1 117.46 74.86 116.12 74.86 114.48L74.86 110.58C74.86 108.92 75.1 107.56 75.58 106.51C76.07 105.46 76.66 104.63 77.4 104.04C78.13 103.44 78.93 103.02 79.82 102.8C80.69 102.58 81.54 102.48 82.33 102.48C82.84 102.48 83.33 102.49 83.79 102.52C84.25 102.56 84.66 102.6 85.03 102.65C85.41 102.69 85.71 102.74 85.97 102.79C86.23 102.84 86.41 102.88 86.51 102.9C86.7 102.95 86.83 103.02 86.94 103.1C87.04 103.18 87.1 103.31 87.1 103.51L87.1 105.28C87.1 105.44 87.06 105.58 86.99 105.68C86.9 105.79 86.76 105.84 86.57 105.84L86.51 105.84C86.29 105.82 86.01 105.8 85.69 105.77C85.36 105.75 85.01 105.72 84.63 105.7C84.27 105.69 83.88 105.67 83.5 105.66C83.11 105.64 82.74 105.63 82.38 105.63C81.82 105.63 81.3 105.71 80.84 105.88C80.37 106.05 79.96 106.32 79.63 106.71C79.3 107.08 79.03 107.59 78.83 108.23C78.64 108.87 78.54 109.65 78.54 110.58L78.54 114.48C78.54 115.4 78.64 116.17 78.83 116.81C79.03 117.44 79.3 117.96 79.63 118.35C79.96 118.73 80.37 119.01 80.84 119.19C81.3 119.35 81.82 119.44 82.38 119.44C82.74 119.44 83.11 119.43 83.5 119.41C83.88 119.39 84.27 119.37 84.63 119.35C85.01 119.34 85.36 119.31 85.69 119.29C86.01 119.26 86.29 119.25 86.51 119.23L86.57 119.23C86.76 119.23 86.9 119.27 86.99 119.38C87.06 119.49 87.1 119.62 87.1 119.78L87.1 121.56ZM102.02 121.66C102.02 121.86 101.98 121.99 101.91 122.06C101.82 122.13 101.68 122.18 101.49 122.21C101.28 122.25 101.05 122.29 100.79 122.34C100.53 122.38 100.21 122.42 99.83 122.45C99.46 122.49 99 122.52 98.46 122.55C97.92 122.58 97.25 122.59 96.45 122.59C95.59 122.59 94.78 122.52 94.04 122.38C93.3 122.23 92.64 121.96 92.09 121.57C91.55 121.17 91.11 120.61 90.79 119.91C90.47 119.21 90.31 118.29 90.31 117.15L90.31 107.91C90.31 106.77 90.47 105.86 90.79 105.15C91.11 104.44 91.55 103.89 92.09 103.5C92.64 103.1 93.3 102.83 94.04 102.69C94.78 102.54 95.59 102.48 96.45 102.48C97.25 102.48 97.92 102.48 98.46 102.51C99 102.54 99.46 102.57 99.83 102.61C100.21 102.64 100.53 102.69 100.79 102.73C101.05 102.77 101.28 102.81 101.49 102.84C101.68 102.88 101.82 102.94 101.91 103.01C101.98 103.07 102.02 103.21 102.02 103.4L102.02 105.1C102.02 105.24 101.96 105.37 101.86 105.47C101.75 105.58 101.64 105.63 101.49 105.63L96.08 105.63C95.3 105.63 94.76 105.79 94.46 106.11C94.15 106.43 93.99 107.02 93.99 107.91L93.99 110.77L101.17 110.77C101.32 110.77 101.43 110.82 101.54 110.93C101.65 111.03 101.7 111.16 101.7 111.3L101.7 113.21C101.7 113.35 101.65 113.47 101.54 113.58C101.43 113.68 101.32 113.74 101.17 113.74L93.99 113.74L93.99 117.15C93.99 118.04 94.15 118.64 94.46 118.96C94.76 119.27 95.3 119.44 96.08 119.44L101.49 119.44C101.64 119.44 101.75 119.49 101.86 119.59C101.96 119.7 102.02 119.82 102.02 119.97L102.02 121.66ZM29.23 121.66C29.23 121.86 29.19 121.99 29.11 122.06C29.02 122.13 28.89 122.18 28.7 122.21C28.5 122.27 28.22 122.32 27.86 122.36C27.5 122.41 27.11 122.44 26.68 122.48C26.26 122.52 25.82 122.54 25.38 122.56C24.94 122.58 24.54 122.59 24.19 122.59C23.33 122.59 22.52 122.52 21.78 122.38C21.03 122.23 20.39 121.96 19.85 121.57C19.3 121.17 18.87 120.61 18.55 119.91C18.23 119.21 18.07 118.29 18.07 117.15L18.07 103.22C18.07 103.07 18.12 102.95 18.23 102.84C18.34 102.74 18.46 102.69 18.6 102.69L21.22 102.69C21.36 102.69 21.49 102.74 21.59 102.84C21.7 102.95 21.76 103.07 21.76 103.22L21.76 117.15C21.76 118.04 21.9 118.64 22.2 118.96C22.5 119.27 23.04 119.44 23.82 119.44L28.7 119.44C28.84 119.44 28.96 119.49 29.06 119.59C29.17 119.7 29.23 119.82 29.23 119.97L29.23 121.66ZM35.42 121.85C35.42 121.99 35.38 122.11 35.27 122.21C35.16 122.32 35.04 122.38 34.89 122.38L32.27 122.38C32.13 122.38 32.01 122.32 31.91 122.21C31.8 122.11 31.74 121.99 31.74 121.85L31.74 103.19C31.74 103.05 31.8 102.93 31.91 102.83C32.01 102.74 32.13 102.69 32.27 102.69L34.89 102.69C35.04 102.69 35.16 102.74 35.27 102.83C35.38 102.93 35.42 103.05 35.42 103.19L35.42 121.85ZM71.41 121.32C71.41 121.62 71.32 121.87 71.11 122.07C70.9 122.27 70.65 122.38 70.35 122.38L67.67 122.38C67.36 122.38 67.07 122.34 66.79 122.25C66.52 122.17 66.27 121.9 66.06 121.42L60.17 108.52C60.11 108.37 60.03 108.31 59.94 108.31C59.85 108.31 59.81 108.37 59.81 108.52L59.81 121.85C59.81 121.99 59.76 122.11 59.66 122.21C59.57 122.32 59.44 122.38 59.31 122.38L57.05 122.38C56.91 122.38 56.78 122.32 56.68 122.21C56.57 122.11 56.52 121.99 56.52 121.85L56.52 103.75C56.52 103.45 56.62 103.2 56.83 103C57.03 102.79 57.28 102.69 57.58 102.69L60.44 102.69C60.72 102.69 60.95 102.74 61.12 102.84C61.28 102.95 61.45 103.18 61.61 103.54L67.78 117.15C67.84 117.3 67.9 117.37 67.99 117.37C68.09 117.37 68.13 117.29 68.13 117.12L68.13 103.19C68.13 102.85 68.3 102.69 68.63 102.69L70.91 102.69C71.25 102.69 71.41 102.85 71.41 103.19L71.41 121.32ZM8.48 106C8.44 105.84 8.4 105.73 8.34 105.67C8.29 105.61 8.2 105.58 8.05 105.58C7.91 105.58 7.81 105.61 7.76 105.67C7.71 105.73 7.67 105.84 7.63 106L5.72 113.87L10.38 113.87L8.48 106ZM46.4 106C46.36 105.84 46.31 105.73 46.27 105.67C46.21 105.61 46.11 105.58 45.98 105.58C45.83 105.58 45.74 105.61 45.68 105.67C45.63 105.73 45.58 105.84 45.55 106L43.65 113.87L48.31 113.87L46.4 106ZM9.84 131.22C9.84 131.97 9.71 132.59 9.45 133.09C9.18 133.61 8.82 134.01 8.38 134.33C7.93 134.64 7.42 134.85 6.83 134.98C6.24 135.11 5.62 135.18 4.97 135.18C4.74 135.18 4.48 135.17 4.19 135.15C3.89 135.14 3.65 135.12 3.45 135.11L3.45 139.52C3.45 139.61 3.43 139.69 3.37 139.75C3.3 139.82 3.22 139.86 3.14 139.86L1.45 139.86C1.35 139.86 1.28 139.82 1.21 139.75C1.14 139.69 1.1 139.61 1.1 139.52L1.1 127.89C1.1 127.73 1.15 127.6 1.25 127.53C1.34 127.46 1.48 127.41 1.65 127.39C2.09 127.32 2.6 127.26 3.18 127.23C3.75 127.19 4.35 127.17 4.97 127.17C5.62 127.17 6.24 127.23 6.83 127.35C7.42 127.48 7.94 127.69 8.38 128C8.82 128.3 9.18 128.7 9.45 129.2C9.71 129.7 9.84 130.33 9.84 131.07L9.84 131.22ZM20.81 139.66C20.81 139.79 20.75 139.86 20.61 139.86L18.55 139.86C18.46 139.86 18.38 139.82 18.35 139.75C18.3 139.69 18.25 139.61 18.21 139.52L15.77 135.02L15.54 135.02C15.31 135.02 15.06 135.01 14.76 135C14.47 134.98 14.23 134.96 14.04 134.95L14.04 139.52C14.04 139.61 14 139.69 13.94 139.75C13.88 139.82 13.81 139.86 13.71 139.86L12.02 139.86C11.94 139.86 11.86 139.82 11.79 139.75C11.72 139.69 11.69 139.61 11.69 139.52L11.69 127.89C11.69 127.73 11.73 127.6 11.83 127.53C11.93 127.46 12.06 127.41 12.23 127.39C12.67 127.32 13.18 127.26 13.75 127.23C14.33 127.19 14.92 127.17 15.55 127.17C16.2 127.17 16.82 127.24 17.41 127.36C18 127.5 18.51 127.71 18.95 128C19.41 128.28 19.76 128.68 20.02 129.17C20.29 129.66 20.42 130.26 20.42 130.98L20.42 131.14C20.42 132.04 20.22 132.77 19.8 133.34C19.39 133.89 18.83 134.32 18.12 134.59L20.77 139.52C20.8 139.55 20.81 139.6 20.81 139.66ZM31.66 134.72C31.66 135.66 31.54 136.46 31.3 137.12C31.05 137.79 30.72 138.33 30.3 138.75C29.86 139.18 29.36 139.48 28.77 139.69C28.19 139.89 27.55 140 26.85 140C26.15 140 25.52 139.89 24.93 139.69C24.34 139.48 23.84 139.18 23.41 138.75C22.98 138.33 22.65 137.79 22.4 137.12C22.16 136.46 22.05 135.66 22.05 134.72L22.05 132.44C22.05 131.51 22.16 130.71 22.4 130.05C22.65 129.37 22.98 128.83 23.41 128.41C23.84 127.99 24.34 127.68 24.93 127.48C25.52 127.27 26.15 127.17 26.85 127.17C27.55 127.17 28.19 127.27 28.77 127.48C29.36 127.68 29.86 127.99 30.3 128.41C30.72 128.83 31.05 129.37 31.3 130.05C31.54 130.71 31.66 131.51 31.66 132.44L31.66 134.72ZM42.96 134.82C42.96 136.5 42.51 137.78 41.58 138.67Q41.52 138.72 41.46 138.78Q40.1 140 37.65 140C37.34 140 37.02 139.99 36.69 139.98C36.36 139.97 36.03 139.95 35.72 139.93C35.41 139.9 35.13 139.88 34.88 139.86C34.62 139.83 34.43 139.81 34.32 139.79C34.16 139.76 34.06 139.72 33.98 139.64C33.91 139.56 33.87 139.44 33.87 139.26L33.87 127.89C33.87 127.73 33.91 127.6 33.98 127.52C34.06 127.45 34.16 127.39 34.32 127.37C34.43 127.35 34.62 127.32 34.88 127.3C35.13 127.28 35.41 127.25 35.72 127.24C36.03 127.22 36.36 127.2 36.69 127.19C37.02 127.18 37.34 127.17 37.65 127.17C39.36 127.17 40.67 127.61 41.58 128.5C42.51 129.37 42.96 130.66 42.96 132.34L42.96 134.82ZM64.27 139.33C64.27 139.46 64.24 139.54 64.17 139.6C64.11 139.65 64.01 139.69 63.89 139.73C63.83 139.75 63.71 139.77 63.56 139.8C63.39 139.83 63.19 139.85 62.95 139.88C62.72 139.91 62.45 139.94 62.16 139.96C61.87 139.99 61.55 140 61.22 140C60.72 140 60.18 139.92 59.62 139.77C59.06 139.63 58.55 139.36 58.08 138.97C57.62 138.58 57.23 138.06 56.93 137.39Q56.46 136.39 56.46 134.82L56.46 132.34C56.46 131.28 56.62 130.42 56.93 129.74C57.23 129.08 57.62 128.55 58.08 128.16C58.55 127.78 59.06 127.52 59.62 127.38C60.18 127.24 60.72 127.17 61.22 127.17C61.55 127.17 61.87 127.18 62.16 127.21C62.45 127.23 62.72 127.25 62.95 127.27C63.19 127.3 63.39 127.34 63.56 127.37C63.71 127.41 63.83 127.43 63.89 127.44C64.01 127.48 64.11 127.51 64.17 127.56C64.24 127.61 64.27 127.71 64.27 127.82L64.27 128.96C64.27 129.06 64.24 129.14 64.19 129.21C64.14 129.28 64.06 129.32 63.93 129.32L63.89 129.32C63.75 129.31 63.58 129.29 63.36 129.27C63.16 129.26 62.94 129.24 62.7 129.23C62.46 129.22 62.22 129.21 61.98 129.19C61.73 129.18 61.48 129.18 61.26 129.18C60.91 129.18 60.57 129.23 60.27 129.34C59.97 129.44 59.72 129.63 59.51 129.87C59.29 130.11 59.12 130.42 59 130.83C58.87 131.24 58.82 131.75 58.82 132.34L58.82 134.82C58.82 135.41 58.87 135.9 59 136.31C59.12 136.72 59.29 137.05 59.51 137.29C59.72 137.54 59.97 137.71 60.27 137.82C60.57 137.93 60.91 137.98 61.26 137.98C61.48 137.98 61.73 137.97 61.98 137.96L62.7 137.93C62.94 137.92 63.16 137.9 63.36 137.88C63.58 137.88 63.75 137.86 63.89 137.85L63.93 137.85C64.06 137.85 64.14 137.88 64.19 137.95C64.24 138.02 64.27 138.1 64.27 138.2L64.27 139.33ZM90.25 134.72C90.25 135.66 90.14 136.46 89.9 137.12C89.66 137.79 89.32 138.33 88.89 138.75C88.46 139.18 87.96 139.48 87.37 139.69C86.78 139.89 86.15 140 85.45 140C84.75 140 84.11 139.89 83.53 139.69C82.95 139.48 82.44 139.18 82.01 138.75C81.58 138.33 81.25 137.79 81.01 137.12C80.77 136.46 80.64 135.66 80.64 134.72L80.64 132.44C80.64 131.51 80.77 130.71 81.01 130.05C81.25 129.37 81.58 128.83 82.01 128.41C82.44 127.99 82.95 127.68 83.53 127.48C84.11 127.27 84.75 127.17 85.45 127.17C86.15 127.17 86.78 127.27 87.37 127.48C87.96 127.68 88.46 127.99 88.89 128.41C89.32 128.83 89.66 129.37 89.9 130.05C90.14 130.71 90.25 131.51 90.25 132.44L90.25 134.72ZM54.35 135.22C54.35 136.11 54.24 136.86 54.01 137.47C53.77 138.09 53.46 138.57 53.04 138.94C52.63 139.32 52.14 139.58 51.57 139.75C51 139.91 50.38 140 49.71 140C49.03 140 48.41 139.91 47.84 139.75C47.27 139.58 46.78 139.32 46.36 138.94C45.96 138.57 45.64 138.09 45.41 137.47C45.18 136.86 45.06 136.11 45.06 135.22L45.06 127.62C45.06 127.53 45.09 127.46 45.16 127.4C45.23 127.33 45.3 127.3 45.4 127.3L47.07 127.3C47.16 127.3 47.24 127.33 47.31 127.4C47.37 127.46 47.4 127.53 47.4 127.62L47.4 135.22C47.4 135.71 47.44 136.13 47.51 136.49C47.58 136.83 47.69 137.13 47.88 137.37C48.05 137.61 48.28 137.79 48.57 137.89C48.87 138.01 49.24 138.07 49.71 138.07C50.15 138.07 50.53 138.01 50.83 137.89C51.12 137.79 51.37 137.61 51.54 137.37C51.71 137.13 51.84 136.83 51.9 136.49C51.97 136.13 52 135.71 52 135.22L52 127.62C52 127.53 52.04 127.46 52.11 127.4C52.17 127.33 52.25 127.3 52.34 127.3L54.02 127.3C54.1 127.3 54.18 127.33 54.25 127.4C54.31 127.46 54.35 127.53 54.35 127.62L54.35 135.22ZM74.41 128.96C74.41 129.05 74.37 129.12 74.3 129.18C74.24 129.24 74.16 129.26 74.07 129.26L71.11 129.26L71.11 139.52C71.11 139.61 71.08 139.69 71.02 139.75C70.95 139.82 70.86 139.86 70.78 139.86L69.1 139.86C69.01 139.86 68.93 139.82 68.87 139.75C68.8 139.69 68.76 139.61 68.76 139.52L68.76 129.26L65.81 129.26C65.72 129.26 65.64 129.24 65.57 129.18C65.5 129.12 65.47 129.05 65.47 128.96L65.47 127.62C65.47 127.53 65.5 127.46 65.57 127.4C65.64 127.33 65.72 127.3 65.81 127.3L74.07 127.3C74.16 127.3 74.24 127.33 74.3 127.4C74.37 127.46 74.41 127.53 74.41 127.62L74.41 128.96ZM78.45 139.52C78.45 139.61 78.41 139.69 78.34 139.75C78.27 139.82 78.2 139.86 78.11 139.86L76.43 139.86C76.35 139.86 76.27 139.82 76.2 139.75C76.13 139.69 76.1 139.61 76.1 139.52L76.1 127.62C76.1 127.53 76.13 127.46 76.2 127.4C76.27 127.33 76.35 127.3 76.43 127.3L78.11 127.3C78.2 127.3 78.27 127.33 78.34 127.4C78.41 127.46 78.45 127.53 78.45 127.62L78.45 139.52ZM101.96 139.19C101.96 139.37 101.91 139.53 101.77 139.67C101.65 139.79 101.48 139.86 101.29 139.86L99.58 139.86C99.38 139.86 99.2 139.83 99.02 139.78C98.84 139.74 98.69 139.55 98.55 139.25L94.8 131.02C94.75 130.93 94.71 130.89 94.65 130.89C94.59 130.89 94.57 130.93 94.57 131.02L94.57 139.52C94.57 139.61 94.53 139.69 94.48 139.75C94.41 139.82 94.34 139.86 94.24 139.86L92.81 139.86C92.72 139.86 92.64 139.82 92.58 139.75C92.51 139.69 92.47 139.61 92.47 139.52L92.47 127.98C92.47 127.78 92.54 127.63 92.66 127.5C92.8 127.37 92.95 127.3 93.15 127.3L94.98 127.3C95.15 127.3 95.29 127.34 95.4 127.41C95.51 127.48 95.61 127.62 95.72 127.84L99.65 136.53C99.69 136.62 99.73 136.66 99.79 136.66C99.84 136.66 99.87 136.61 99.87 136.52L99.87 127.62C99.87 127.41 99.98 127.3 100.19 127.3L101.65 127.3C101.86 127.3 101.96 127.41 101.96 127.62L101.96 139.19ZM7.49 131.06C7.49 130.35 7.28 129.85 6.86 129.55C6.44 129.24 5.81 129.1 4.96 129.1C4.87 129.1 4.76 129.1 4.61 129.1C4.48 129.1 4.33 129.11 4.19 129.12C4.03 129.12 3.9 129.13 3.77 129.13C3.64 129.14 3.53 129.15 3.45 129.16L3.45 133.2C3.52 133.2 3.63 133.2 3.77 133.21C3.91 133.21 4.05 133.22 4.21 133.23C4.36 133.23 4.51 133.24 4.65 133.24C4.79 133.25 4.89 133.25 4.96 133.25C5.87 133.25 6.52 133.09 6.92 132.74C7.3 132.4 7.49 131.89 7.49 131.22L7.49 131.06ZM40.62 132.34C40.62 131.72 40.54 131.19 40.39 130.78C40.23 130.37 40.02 130.04 39.76 129.8C39.49 129.56 39.18 129.38 38.82 129.29C38.45 129.19 38.06 129.14 37.64 129.14C37.32 129.14 37.05 129.15 36.83 129.16C36.6 129.17 36.4 129.18 36.22 129.19L36.22 137.98C36.4 137.99 36.6 138 36.83 138.02C37.05 138.03 37.32 138.03 37.64 138.03C38.06 138.03 38.45 137.98 38.82 137.88C39.18 137.8 39.49 137.62 39.76 137.38C40.02 137.13 40.23 136.82 40.39 136.4C40.54 135.99 40.62 135.47 40.62 134.83L40.62 132.34ZM18.08 130.98C18.08 130.35 17.86 129.89 17.44 129.61C17.02 129.32 16.38 129.18 15.54 129.18C15.44 129.18 15.33 129.18 15.19 129.19C15.05 129.19 14.9 129.2 14.76 129.2C14.62 129.21 14.48 129.21 14.35 129.22C14.22 129.23 14.11 129.24 14.04 129.25L14.04 133.05C14.1 133.05 14.21 133.05 14.35 133.06C14.49 133.07 14.63 133.07 14.79 133.08C14.94 133.08 15.09 133.09 15.22 133.09L15.54 133.09C16.42 133.09 17.06 132.96 17.47 132.68C17.87 132.39 18.08 131.88 18.08 131.14L18.08 130.98ZM29.31 132.44C29.31 131.31 29.11 130.49 28.71 129.98C28.31 129.47 27.68 129.21 26.85 129.21C26.02 129.21 25.39 129.47 25 129.98C24.59 130.49 24.39 131.31 24.39 132.44L24.39 134.72C24.39 135.85 24.59 136.67 25 137.18C25.39 137.69 26.02 137.95 26.85 137.95C27.68 137.95 28.31 137.69 28.71 137.18C29.11 136.67 29.31 135.85 29.31 134.72L29.31 132.44ZM87.91 132.44C87.91 131.31 87.71 130.49 87.3 129.98C86.91 129.47 86.28 129.21 85.45 129.21C84.62 129.21 84 129.47 83.59 129.98C83.19 130.49 83 131.31 83 132.44L83 134.72C83 135.85 83.19 136.67 83.59 137.18C84 137.69 84.62 137.95 85.45 137.95C86.28 137.95 86.91 137.69 87.3 137.18C87.71 136.67 87.91 135.85 87.91 134.72L87.91 132.44Z" fill="#5C8EE6" fill-opacity="1.000000" fill-rule="evenodd"/>
</svg>
